<svg width="23" height="23" viewBox="0 0 23 23" fill="none" xmlns="http://www.w3.org/2000/svg">
<path d="M20.0938 0.5625H2.90625C2.28465 0.5625 1.68851 0.80943 1.24897 1.24897C0.80943 1.68851 0.5625 2.28465 0.5625 2.90625L0.5625 20.0938C0.5625 20.7154 0.80943 21.3115 1.24897 21.751C1.68851 22.1906 2.28465 22.4375 2.90625 22.4375H20.0938C20.7154 22.4375 21.3115 22.1906 21.751 21.751C22.1906 21.3115 22.4375 20.7154 22.4375 20.0938V2.90625C22.4375 2.28465 22.1906 1.68851 21.751 1.24897C21.3115 0.80943 20.7154 0.5625 20.0938 0.5625ZM19.2935 15.5708L18.561 18.7446C18.5238 18.906 18.433 19.05 18.3035 19.1531C18.1739 19.2562 18.0133 19.3124 17.8477 19.3125C10.0352 19.3125 3.6875 12.979 3.6875 5.15234C3.69331 4.98831 3.75162 4.83047 3.85385 4.70205C3.95607 4.57363 4.09682 4.48141 4.25537 4.43896L7.4292 3.70654C7.48334 3.69509 7.53843 3.68872 7.59375 3.6875C7.73538 3.69465 7.87252 3.73958 7.99093 3.81763C8.10933 3.89568 8.20469 4.004 8.26709 4.13135L9.73193 7.54932C9.76781 7.64147 9.78779 7.73905 9.79102 7.83789C9.77909 8.05471 9.68268 8.25822 9.52246 8.40479L7.67236 9.91846C8.79337 12.2944 10.7056 14.2066 13.0815 15.3276L14.5952 13.4775C14.7418 13.3173 14.9453 13.2209 15.1621 13.209C15.261 13.2122 15.3585 13.2321 15.4507 13.2681L18.8687 14.7329C18.9961 14.7952 19.1044 14.8906 19.1825 15.009C19.2606 15.1274 19.3055 15.2646 19.3125 15.4062C19.3115 15.4616 19.3051 15.5167 19.2935 15.5708Z" fill="white"/>
</svg>
