<svg width="110" height="66" viewBox="0 0 110 66" fill="none" xmlns="http://www.w3.org/2000/svg">
<path d="M106.964 15.3317L59.021 0.601992C56.4085 -0.200664 53.5898 -0.200664 50.979 0.601992L3.03445 15.3317C-1.01148 16.5743 -1.01148 21.9248 3.03445 23.1675L11.3927 25.7353C9.55883 28.0023 8.43133 30.7678 8.31961 33.7962C6.66445 34.745 5.49914 36.4568 5.49914 38.5004C5.49914 40.3532 6.47539 41.9121 7.88133 42.909L3.49336 62.654C3.1118 64.3711 4.41805 66.0004 6.17633 66.0004H15.8202C17.5802 66.0004 18.8865 64.3711 18.5049 62.654L14.117 42.909C15.5229 41.9121 16.4991 40.3532 16.4991 38.5004C16.4991 36.5118 15.3871 34.8481 13.8076 33.8821C13.9382 31.3006 15.2582 29.0181 17.3637 27.5709L50.9773 37.8989C52.5345 38.3767 55.5216 38.9731 59.0193 37.8989L106.964 23.1692C111.011 21.9248 111.011 16.5761 106.964 15.3317ZM60.6349 43.1565C55.7313 44.6621 51.553 43.8303 49.3616 43.1565L24.4363 35.4995L21.9991 55.0004C21.9991 61.0762 36.7735 66.0004 54.9991 66.0004C73.2248 66.0004 87.9991 61.0762 87.9991 55.0004L85.562 35.4978L60.6349 43.1565Z" fill="#9FA827"/>
</svg>
