<svg width="95" height="87" viewBox="0 0 95 87" fill="none" xmlns="http://www.w3.org/2000/svg">
<path d="M90.0846 1.65204C89.1609 -0.4717 86.5218 -0.556649 85.4166 1.44816C80.3033 10.6057 71.1488 16.3143 60.6912 16.3143H47.4955C30.0112 16.3143 15.8258 30.9257 15.8258 48.935C15.8258 50.1242 15.9578 51.2626 16.0732 52.4179C26.5968 44.6535 41.7883 38.0614 63.3303 38.0614C64.7818 38.0614 65.9695 39.2847 65.9695 40.7798C65.9695 42.2749 64.7818 43.4982 63.3303 43.4982C21.8628 43.4982 4.27958 69.6796 0.386846 79.5168C-0.701799 82.2861 0.584782 85.4463 3.2734 86.5846C5.97852 87.7399 9.04652 86.3977 10.1682 83.6453C10.4156 83.0337 13.6155 75.5072 22.0278 68.2525C27.372 75.7111 37.5327 82.8298 50.8769 81.3687C76.7734 79.4318 95 55.5101 95 26.2194C95 17.6905 93.2186 8.85576 90.0846 1.65204Z" fill="#9FA827"/>
</svg>
