<svg width="84" height="83" viewBox="0 0 84 83" fill="none" xmlns="http://www.w3.org/2000/svg">
<path d="M36.75 15.5628L39.375 10.3752L44.625 7.7814L39.375 5.1876L36.75 0L34.125 5.1876L28.875 7.7814L34.125 10.3752L36.75 15.5628ZM13.125 25.938L17.4989 17.2925L26.25 12.969L17.4989 8.64546L13.125 0L8.75109 8.64546L0 12.969L8.75109 17.2925L13.125 25.938ZM70.875 46.6884L66.5011 55.3339L57.75 59.6574L66.5011 63.981L70.875 72.6264L75.2489 63.981L84 59.6574L75.2489 55.3339L70.875 46.6884ZM82.4611 15.2759L68.5404 1.52062C67.5166 0.505791 66.173 0 64.8293 0C63.4856 0 62.142 0.505791 61.1166 1.52062L1.53891 60.3902C-0.511875 62.4166 -0.511875 65.701 1.53891 67.7258L15.4596 81.481C16.485 82.4942 17.8287 83 19.1707 83C20.5144 83 21.858 82.4942 22.8834 81.481L82.4611 22.6098C84.5119 20.5867 84.5119 17.3007 82.4611 15.2759ZM58.9723 32.9834L50.6198 24.7303L64.8277 10.6913L73.1801 18.9445L58.9723 32.9834Z" fill="#9FA827"/>
</svg>
